# xmcd
#
# Track frame offsets:
#	180
#	15390
#	30387
#	43687
#	55952
#	67430
#	80911
#	94445
#	107774
#	121132
#	135087
#	148686
#	161804
#	173872
#	186601
#	199074
#	213720
#	227271
#	241424
#	253422
#	266506
#	279034
#	290266
#
# Disc length: 4039 seconds
#
# Revision: 0
# Processed by: cddbd v1.5.1PL2 Copyright (c) Steve Scherf et al.
# Submitted via: EasyCDDAExtractor 4.5.0.2
#
DISCID=590fc517
DTITLE=Lil Green - Why Don't You Do Right 1940-42
DYEAR=2001
DGENRE=Blues
TTITLE0=Romance In The Dark
TTITLE1=Just Rockin'
TTITLE2=Cherry Tree Blues
TTITLE3=What Have I Done?
TTITLE4=Give Your Mama One Smile
TTITLE5=My Mellow Man
TTITLE6=Knockin' Myself Out
TTITLE7=I Won't Sell My Love
TTITLE8=Why Don't You Do Right?
TTITLE9=What's The Matter With Love
TTITLE10=Love Me
TTITLE11=Country Boy Blues
TTITLE12=How Can I Go On?
TTITLE13=Hello Babe
TTITLE14=If I Didn't Love You
TTITLE15=Because I Love My Daddy So
TTITLE16=I'm Going To Start A Racket 
TTITLE17=99 Blues
TTITLE18=Don't Know What I Will Do
TTITLE19=You Got Me To The Place
TTITLE20=If You Want To Share Your Love
TTITLE21=If I'm A Fool
TTITLE22=I'm Wasting My Time On You
EXTD=
EXTT0=
EXTT1=
EXTT2=
EXTT3=
EXTT4=
EXTT5=
EXTT6=
EXTT7=
EXTT8=
EXTT9=
EXTT10=
EXTT11=
EXTT12=
EXTT13=
EXTT14=
EXTT15=
EXTT16=
EXTT17=
EXTT18=
EXTT19=
EXTT20=
EXTT21=
EXTT22=
PLAYORDER=
